<mxfile host="app.diagrams.net" modified="2023-12-12T09:48:37.963Z" agent="Mozilla/5.0 (X11; Linux x86_64) AppleWebKit/537.36 (KHTML, like Gecko) Chrome/120.0.0.0 Safari/537.36" etag="HgF9nY_WKVKrzhwa7l02" version="22.1.7" type="device" pages="2">
  <diagram name="Encrypt" id="o71IDkHV3ZvDwMHHaNhy">
    <mxGraphModel dx="837" dy="753" grid="1" gridSize="10" guides="1" tooltips="1" connect="1" arrows="1" fold="1" page="1" pageScale="1" pageWidth="850" pageHeight="1100" math="0" shadow="0">
      <root>
        <mxCell id="0" />
        <mxCell id="1" parent="0" />
        <mxCell id="7T_0Ri3ZbX09s26zW6ti-1" value="M&lt;sub&gt;1&lt;/sub&gt;" style="rounded=0;whiteSpace=wrap;html=1;" parent="1" vertex="1">
          <mxGeometry x="110" y="80" width="120" height="30" as="geometry" />
        </mxCell>
        <mxCell id="7T_0Ri3ZbX09s26zW6ti-2" value="M&lt;span style=&quot;font-size: 10px;&quot;&gt;&lt;sub&gt;2&lt;/sub&gt;&lt;/span&gt;" style="rounded=0;whiteSpace=wrap;html=1;" parent="1" vertex="1">
          <mxGeometry x="290" y="80" width="120" height="30" as="geometry" />
        </mxCell>
        <mxCell id="7T_0Ri3ZbX09s26zW6ti-3" value="M&lt;span style=&quot;font-size: 8.33333px;&quot;&gt;n&lt;/span&gt;" style="rounded=0;whiteSpace=wrap;html=1;" parent="1" vertex="1">
          <mxGeometry x="505" y="80" width="120" height="35" as="geometry" />
        </mxCell>
        <mxCell id="7T_0Ri3ZbX09s26zW6ti-4" value="..." style="text;html=1;strokeColor=none;fillColor=none;align=center;verticalAlign=middle;whiteSpace=wrap;rounded=0;" parent="1" vertex="1">
          <mxGeometry x="430" y="75" width="60" height="35" as="geometry" />
        </mxCell>
        <mxCell id="7T_0Ri3ZbX09s26zW6ti-14" value="C&lt;sub&gt;0&lt;/sub&gt; = IV" style="text;html=1;strokeColor=none;fillColor=none;align=center;verticalAlign=middle;whiteSpace=wrap;rounded=0;" parent="1" vertex="1">
          <mxGeometry x="20" y="151" width="60" height="30" as="geometry" />
        </mxCell>
        <mxCell id="7T_0Ri3ZbX09s26zW6ti-15" value="" style="verticalLabelPosition=bottom;verticalAlign=top;html=1;shape=mxgraph.flowchart.summing_function;" parent="1" vertex="1">
          <mxGeometry x="160" y="155" width="20" height="20" as="geometry" />
        </mxCell>
        <mxCell id="7T_0Ri3ZbX09s26zW6ti-45" style="edgeStyle=orthogonalEdgeStyle;rounded=0;orthogonalLoop=1;jettySize=auto;html=1;" parent="1" source="7T_0Ri3ZbX09s26zW6ti-16" target="7T_0Ri3ZbX09s26zW6ti-41" edge="1">
          <mxGeometry relative="1" as="geometry">
            <Array as="points">
              <mxPoint x="170" y="320" />
              <mxPoint x="170" y="320" />
            </Array>
          </mxGeometry>
        </mxCell>
        <mxCell id="7T_0Ri3ZbX09s26zW6ti-16" value="AES" style="rounded=0;whiteSpace=wrap;html=1;" parent="1" vertex="1">
          <mxGeometry x="120" y="220" width="100" height="50" as="geometry" />
        </mxCell>
        <mxCell id="7T_0Ri3ZbX09s26zW6ti-18" value="" style="endArrow=classic;html=1;rounded=0;exitX=1;exitY=0.5;exitDx=0;exitDy=0;entryX=0;entryY=0.5;entryDx=0;entryDy=0;entryPerimeter=0;" parent="1" source="7T_0Ri3ZbX09s26zW6ti-14" target="7T_0Ri3ZbX09s26zW6ti-15" edge="1">
          <mxGeometry width="50" height="50" relative="1" as="geometry">
            <mxPoint x="270" y="200" as="sourcePoint" />
            <mxPoint x="320" y="150" as="targetPoint" />
          </mxGeometry>
        </mxCell>
        <mxCell id="7T_0Ri3ZbX09s26zW6ti-19" value="" style="endArrow=classic;html=1;rounded=0;exitX=0.5;exitY=1;exitDx=0;exitDy=0;entryX=0.5;entryY=0;entryDx=0;entryDy=0;entryPerimeter=0;" parent="1" source="7T_0Ri3ZbX09s26zW6ti-1" target="7T_0Ri3ZbX09s26zW6ti-15" edge="1">
          <mxGeometry width="50" height="50" relative="1" as="geometry">
            <mxPoint x="270" y="200" as="sourcePoint" />
            <mxPoint x="320" y="150" as="targetPoint" />
          </mxGeometry>
        </mxCell>
        <mxCell id="7T_0Ri3ZbX09s26zW6ti-20" value="" style="endArrow=classic;html=1;rounded=0;entryX=0;entryY=0.5;entryDx=0;entryDy=0;" parent="1" edge="1">
          <mxGeometry width="50" height="50" relative="1" as="geometry">
            <mxPoint x="90" y="245" as="sourcePoint" />
            <mxPoint x="120" y="245" as="targetPoint" />
          </mxGeometry>
        </mxCell>
        <mxCell id="7T_0Ri3ZbX09s26zW6ti-21" value="K" style="text;html=1;strokeColor=none;fillColor=none;align=center;verticalAlign=middle;whiteSpace=wrap;rounded=0;" parent="1" vertex="1">
          <mxGeometry x="50" y="230" width="40" height="30" as="geometry" />
        </mxCell>
        <mxCell id="7T_0Ri3ZbX09s26zW6ti-22" value="" style="endArrow=classic;html=1;rounded=0;exitX=0.5;exitY=1;exitDx=0;exitDy=0;exitPerimeter=0;entryX=0.5;entryY=0;entryDx=0;entryDy=0;" parent="1" source="7T_0Ri3ZbX09s26zW6ti-15" target="7T_0Ri3ZbX09s26zW6ti-16" edge="1">
          <mxGeometry width="50" height="50" relative="1" as="geometry">
            <mxPoint x="270" y="200" as="sourcePoint" />
            <mxPoint x="320" y="150" as="targetPoint" />
          </mxGeometry>
        </mxCell>
        <mxCell id="7T_0Ri3ZbX09s26zW6ti-46" style="edgeStyle=orthogonalEdgeStyle;rounded=0;orthogonalLoop=1;jettySize=auto;html=1;entryX=0.461;entryY=0.01;entryDx=0;entryDy=0;entryPerimeter=0;" parent="1" source="7T_0Ri3ZbX09s26zW6ti-24" target="7T_0Ri3ZbX09s26zW6ti-42" edge="1">
          <mxGeometry relative="1" as="geometry" />
        </mxCell>
        <mxCell id="7T_0Ri3ZbX09s26zW6ti-24" value="AES" style="rounded=0;whiteSpace=wrap;html=1;" parent="1" vertex="1">
          <mxGeometry x="300" y="220" width="100" height="50" as="geometry" />
        </mxCell>
        <mxCell id="7T_0Ri3ZbX09s26zW6ti-47" style="edgeStyle=orthogonalEdgeStyle;rounded=0;orthogonalLoop=1;jettySize=auto;html=1;entryX=0.5;entryY=0;entryDx=0;entryDy=0;" parent="1" source="7T_0Ri3ZbX09s26zW6ti-25" target="7T_0Ri3ZbX09s26zW6ti-43" edge="1">
          <mxGeometry relative="1" as="geometry" />
        </mxCell>
        <mxCell id="7T_0Ri3ZbX09s26zW6ti-25" value="AES" style="rounded=0;whiteSpace=wrap;html=1;" parent="1" vertex="1">
          <mxGeometry x="515" y="225" width="100" height="50" as="geometry" />
        </mxCell>
        <mxCell id="7T_0Ri3ZbX09s26zW6ti-26" value="K" style="text;html=1;strokeColor=none;fillColor=none;align=center;verticalAlign=middle;whiteSpace=wrap;rounded=0;" parent="1" vertex="1">
          <mxGeometry x="250" y="230" width="30" height="30" as="geometry" />
        </mxCell>
        <mxCell id="7T_0Ri3ZbX09s26zW6ti-27" value="K" style="text;html=1;strokeColor=none;fillColor=none;align=center;verticalAlign=middle;whiteSpace=wrap;rounded=0;" parent="1" vertex="1">
          <mxGeometry x="460" y="235" width="40" height="30" as="geometry" />
        </mxCell>
        <mxCell id="7T_0Ri3ZbX09s26zW6ti-28" value="" style="endArrow=classic;html=1;rounded=0;entryX=0;entryY=0.5;entryDx=0;entryDy=0;" parent="1" target="7T_0Ri3ZbX09s26zW6ti-24" edge="1">
          <mxGeometry width="50" height="50" relative="1" as="geometry">
            <mxPoint x="280" y="245" as="sourcePoint" />
            <mxPoint x="280" y="150" as="targetPoint" />
          </mxGeometry>
        </mxCell>
        <mxCell id="7T_0Ri3ZbX09s26zW6ti-29" value="" style="endArrow=classic;html=1;rounded=0;exitX=1;exitY=0.5;exitDx=0;exitDy=0;" parent="1" target="7T_0Ri3ZbX09s26zW6ti-25" edge="1">
          <mxGeometry width="50" height="50" relative="1" as="geometry">
            <mxPoint x="495" y="250" as="sourcePoint" />
            <mxPoint x="225" y="283" as="targetPoint" />
          </mxGeometry>
        </mxCell>
        <mxCell id="7T_0Ri3ZbX09s26zW6ti-38" value="" style="group" parent="1" vertex="1" connectable="0">
          <mxGeometry x="340" y="110" width="20" height="110" as="geometry" />
        </mxCell>
        <mxCell id="7T_0Ri3ZbX09s26zW6ti-35" value="" style="endArrow=classic;html=1;rounded=0;exitX=0.5;exitY=1;exitDx=0;exitDy=0;entryX=0.5;entryY=0;entryDx=0;entryDy=0;entryPerimeter=0;" parent="7T_0Ri3ZbX09s26zW6ti-38" target="7T_0Ri3ZbX09s26zW6ti-36" edge="1">
          <mxGeometry width="50" height="50" relative="1" as="geometry">
            <mxPoint x="10" as="sourcePoint" />
            <mxPoint x="160" y="40" as="targetPoint" />
          </mxGeometry>
        </mxCell>
        <mxCell id="7T_0Ri3ZbX09s26zW6ti-36" value="" style="verticalLabelPosition=bottom;verticalAlign=top;html=1;shape=mxgraph.flowchart.summing_function;" parent="7T_0Ri3ZbX09s26zW6ti-38" vertex="1">
          <mxGeometry y="45" width="20" height="20" as="geometry" />
        </mxCell>
        <mxCell id="7T_0Ri3ZbX09s26zW6ti-37" value="" style="endArrow=classic;html=1;rounded=0;exitX=0.5;exitY=1;exitDx=0;exitDy=0;exitPerimeter=0;entryX=0.5;entryY=0;entryDx=0;entryDy=0;" parent="7T_0Ri3ZbX09s26zW6ti-38" source="7T_0Ri3ZbX09s26zW6ti-36" edge="1">
          <mxGeometry width="50" height="50" relative="1" as="geometry">
            <mxPoint x="110" y="90" as="sourcePoint" />
            <mxPoint x="10" y="110" as="targetPoint" />
          </mxGeometry>
        </mxCell>
        <mxCell id="7T_0Ri3ZbX09s26zW6ti-41" value="C&lt;sub&gt;1&lt;/sub&gt;" style="rounded=0;whiteSpace=wrap;html=1;" parent="1" vertex="1">
          <mxGeometry x="110" y="340" width="130" height="30" as="geometry" />
        </mxCell>
        <mxCell id="7T_0Ri3ZbX09s26zW6ti-42" value="C&lt;sub&gt;2&lt;/sub&gt;" style="rounded=0;whiteSpace=wrap;html=1;" parent="1" vertex="1">
          <mxGeometry x="290" y="340" width="130" height="30" as="geometry" />
        </mxCell>
        <mxCell id="7T_0Ri3ZbX09s26zW6ti-43" value="C&lt;sub&gt;n&lt;/sub&gt;" style="rounded=0;whiteSpace=wrap;html=1;" parent="1" vertex="1">
          <mxGeometry x="505" y="340" width="120" height="30" as="geometry" />
        </mxCell>
        <mxCell id="7T_0Ri3ZbX09s26zW6ti-48" value="" style="group" parent="1" vertex="1" connectable="0">
          <mxGeometry x="555" y="114" width="20" height="110" as="geometry" />
        </mxCell>
        <mxCell id="7T_0Ri3ZbX09s26zW6ti-49" value="" style="endArrow=classic;html=1;rounded=0;exitX=0.5;exitY=1;exitDx=0;exitDy=0;entryX=0.5;entryY=0;entryDx=0;entryDy=0;entryPerimeter=0;" parent="7T_0Ri3ZbX09s26zW6ti-48" target="7T_0Ri3ZbX09s26zW6ti-50" edge="1">
          <mxGeometry width="50" height="50" relative="1" as="geometry">
            <mxPoint x="10" as="sourcePoint" />
            <mxPoint x="160" y="40" as="targetPoint" />
          </mxGeometry>
        </mxCell>
        <mxCell id="7T_0Ri3ZbX09s26zW6ti-50" value="" style="verticalLabelPosition=bottom;verticalAlign=top;html=1;shape=mxgraph.flowchart.summing_function;" parent="7T_0Ri3ZbX09s26zW6ti-48" vertex="1">
          <mxGeometry y="45" width="20" height="20" as="geometry" />
        </mxCell>
        <mxCell id="7T_0Ri3ZbX09s26zW6ti-51" value="" style="endArrow=classic;html=1;rounded=0;exitX=0.5;exitY=1;exitDx=0;exitDy=0;exitPerimeter=0;entryX=0.5;entryY=0;entryDx=0;entryDy=0;" parent="7T_0Ri3ZbX09s26zW6ti-48" source="7T_0Ri3ZbX09s26zW6ti-50" edge="1">
          <mxGeometry width="50" height="50" relative="1" as="geometry">
            <mxPoint x="110" y="90" as="sourcePoint" />
            <mxPoint x="10" y="110" as="targetPoint" />
          </mxGeometry>
        </mxCell>
        <mxCell id="7T_0Ri3ZbX09s26zW6ti-55" style="edgeStyle=orthogonalEdgeStyle;rounded=0;orthogonalLoop=1;jettySize=auto;html=1;entryX=0;entryY=0.5;entryDx=0;entryDy=0;entryPerimeter=0;" parent="1" source="7T_0Ri3ZbX09s26zW6ti-16" target="7T_0Ri3ZbX09s26zW6ti-36" edge="1">
          <mxGeometry relative="1" as="geometry">
            <Array as="points">
              <mxPoint x="170" y="290" />
              <mxPoint x="250" y="290" />
              <mxPoint x="250" y="165" />
            </Array>
          </mxGeometry>
        </mxCell>
        <mxCell id="ZEX6KtnuvBcWyt1rVBs4-1" value="" style="endArrow=classic;html=1;rounded=0;" parent="1" edge="1">
          <mxGeometry width="50" height="50" relative="1" as="geometry">
            <mxPoint x="510" y="170" as="sourcePoint" />
            <mxPoint x="555" y="170" as="targetPoint" />
          </mxGeometry>
        </mxCell>
        <mxCell id="ZEX6KtnuvBcWyt1rVBs4-2" value="C&lt;sub style=&quot;border-color: var(--border-color);&quot;&gt;n-1&lt;/sub&gt;" style="text;html=1;strokeColor=none;fillColor=none;align=center;verticalAlign=middle;whiteSpace=wrap;rounded=0;" parent="1" vertex="1">
          <mxGeometry x="475" y="154" width="40" height="30" as="geometry" />
        </mxCell>
        <mxCell id="jM3uo1a4G34x2edrjBwO-1" value="C&lt;sub style=&quot;border-color: var(--border-color);&quot;&gt;1&lt;/sub&gt;" style="text;html=1;strokeColor=none;fillColor=none;align=center;verticalAlign=middle;whiteSpace=wrap;rounded=0;" vertex="1" parent="1">
          <mxGeometry x="280" y="125" width="40" height="30" as="geometry" />
        </mxCell>
      </root>
    </mxGraphModel>
  </diagram>
  <diagram id="V-0V9B5wcuyhwd2LUnUV" name="Decrypt">
    <mxGraphModel dx="837" dy="753" grid="1" gridSize="10" guides="1" tooltips="1" connect="1" arrows="1" fold="1" page="1" pageScale="1" pageWidth="850" pageHeight="1100" math="0" shadow="0">
      <root>
        <mxCell id="0" />
        <mxCell id="1" parent="0" />
        <mxCell id="fG_Hg0KZ-a5OGt1LmFdi-1" style="edgeStyle=orthogonalEdgeStyle;rounded=0;orthogonalLoop=1;jettySize=auto;html=1;" parent="1" target="fG_Hg0KZ-a5OGt1LmFdi-5" edge="1">
          <mxGeometry relative="1" as="geometry">
            <mxPoint x="240" y="160" as="sourcePoint" />
          </mxGeometry>
        </mxCell>
        <mxCell id="fG_Hg0KZ-a5OGt1LmFdi-2" style="edgeStyle=orthogonalEdgeStyle;rounded=0;orthogonalLoop=1;jettySize=auto;html=1;entryX=0.5;entryY=0;entryDx=0;entryDy=0;" parent="1" target="fG_Hg0KZ-a5OGt1LmFdi-10" edge="1">
          <mxGeometry relative="1" as="geometry">
            <mxPoint x="420" y="160" as="sourcePoint" />
          </mxGeometry>
        </mxCell>
        <mxCell id="fG_Hg0KZ-a5OGt1LmFdi-3" style="edgeStyle=orthogonalEdgeStyle;rounded=0;orthogonalLoop=1;jettySize=auto;html=1;" parent="1" target="fG_Hg0KZ-a5OGt1LmFdi-11" edge="1">
          <mxGeometry relative="1" as="geometry">
            <mxPoint x="644" y="165" as="sourcePoint" />
          </mxGeometry>
        </mxCell>
        <mxCell id="fG_Hg0KZ-a5OGt1LmFdi-4" value="" style="verticalLabelPosition=bottom;verticalAlign=top;html=1;shape=mxgraph.flowchart.summing_function;" parent="1" vertex="1">
          <mxGeometry x="230" y="335" width="20" height="20" as="geometry" />
        </mxCell>
        <mxCell id="fG_Hg0KZ-a5OGt1LmFdi-5" value="AES" style="rounded=0;whiteSpace=wrap;html=1;" parent="1" vertex="1">
          <mxGeometry x="190" y="240" width="100" height="50" as="geometry" />
        </mxCell>
        <mxCell id="fG_Hg0KZ-a5OGt1LmFdi-6" value="" style="endArrow=classic;html=1;rounded=0;exitX=0.5;exitY=1;exitDx=0;exitDy=0;entryX=0.5;entryY=0;entryDx=0;entryDy=0;entryPerimeter=0;" parent="1" target="fG_Hg0KZ-a5OGt1LmFdi-4" edge="1">
          <mxGeometry width="50" height="50" relative="1" as="geometry">
            <mxPoint x="240" y="290" as="sourcePoint" />
            <mxPoint x="390" y="330" as="targetPoint" />
          </mxGeometry>
        </mxCell>
        <mxCell id="fG_Hg0KZ-a5OGt1LmFdi-7" value="" style="endArrow=classic;html=1;rounded=0;exitX=1;exitY=0.5;exitDx=0;exitDy=0;entryX=0;entryY=0.5;entryDx=0;entryDy=0;" parent="1" edge="1">
          <mxGeometry width="50" height="50" relative="1" as="geometry">
            <mxPoint x="130" y="264.5799999999999" as="sourcePoint" />
            <mxPoint x="190" y="265" as="targetPoint" />
          </mxGeometry>
        </mxCell>
        <mxCell id="fG_Hg0KZ-a5OGt1LmFdi-8" value="K" style="text;html=1;strokeColor=none;fillColor=none;align=center;verticalAlign=middle;whiteSpace=wrap;rounded=0;" parent="1" vertex="1">
          <mxGeometry x="80" y="250" width="60" height="30" as="geometry" />
        </mxCell>
        <mxCell id="fG_Hg0KZ-a5OGt1LmFdi-9" value="" style="endArrow=classic;html=1;rounded=0;exitX=0.5;exitY=1;exitDx=0;exitDy=0;exitPerimeter=0;entryX=0.5;entryY=0;entryDx=0;entryDy=0;" parent="1" source="fG_Hg0KZ-a5OGt1LmFdi-4" edge="1">
          <mxGeometry width="50" height="50" relative="1" as="geometry">
            <mxPoint x="340" y="380" as="sourcePoint" />
            <mxPoint x="240" y="400" as="targetPoint" />
          </mxGeometry>
        </mxCell>
        <mxCell id="fG_Hg0KZ-a5OGt1LmFdi-10" value="AES" style="rounded=0;whiteSpace=wrap;html=1;" parent="1" vertex="1">
          <mxGeometry x="370" y="240" width="100" height="50" as="geometry" />
        </mxCell>
        <mxCell id="fG_Hg0KZ-a5OGt1LmFdi-11" value="AES" style="rounded=0;whiteSpace=wrap;html=1;" parent="1" vertex="1">
          <mxGeometry x="594" y="245" width="100" height="50" as="geometry" />
        </mxCell>
        <mxCell id="fG_Hg0KZ-a5OGt1LmFdi-12" value="K" style="text;html=1;strokeColor=none;fillColor=none;align=center;verticalAlign=middle;whiteSpace=wrap;rounded=0;" parent="1" vertex="1">
          <mxGeometry x="320" y="250" width="30" height="30" as="geometry" />
        </mxCell>
        <mxCell id="fG_Hg0KZ-a5OGt1LmFdi-13" value="K" style="text;html=1;strokeColor=none;fillColor=none;align=center;verticalAlign=middle;whiteSpace=wrap;rounded=0;" parent="1" vertex="1">
          <mxGeometry x="539" y="255" width="40" height="30" as="geometry" />
        </mxCell>
        <mxCell id="fG_Hg0KZ-a5OGt1LmFdi-14" value="" style="endArrow=classic;html=1;rounded=0;entryX=0;entryY=0.5;entryDx=0;entryDy=0;" parent="1" target="fG_Hg0KZ-a5OGt1LmFdi-10" edge="1">
          <mxGeometry width="50" height="50" relative="1" as="geometry">
            <mxPoint x="350" y="265" as="sourcePoint" />
            <mxPoint x="350" y="170" as="targetPoint" />
          </mxGeometry>
        </mxCell>
        <mxCell id="fG_Hg0KZ-a5OGt1LmFdi-15" value="" style="endArrow=classic;html=1;rounded=0;exitX=1;exitY=0.5;exitDx=0;exitDy=0;" parent="1" target="fG_Hg0KZ-a5OGt1LmFdi-11" edge="1">
          <mxGeometry width="50" height="50" relative="1" as="geometry">
            <mxPoint x="574" y="270" as="sourcePoint" />
            <mxPoint x="304" y="303" as="targetPoint" />
          </mxGeometry>
        </mxCell>
        <mxCell id="fG_Hg0KZ-a5OGt1LmFdi-16" value="M&lt;sub&gt;1&lt;/sub&gt;" style="rounded=0;whiteSpace=wrap;html=1;" parent="1" vertex="1">
          <mxGeometry x="180" y="405" width="120" height="30" as="geometry" />
        </mxCell>
        <mxCell id="fG_Hg0KZ-a5OGt1LmFdi-17" value="M&lt;sub&gt;2&lt;/sub&gt;" style="rounded=0;whiteSpace=wrap;html=1;" parent="1" vertex="1">
          <mxGeometry x="360" y="405" width="120" height="30" as="geometry" />
        </mxCell>
        <mxCell id="fG_Hg0KZ-a5OGt1LmFdi-18" value="M&lt;sub&gt;n&lt;/sub&gt;" style="rounded=0;whiteSpace=wrap;html=1;" parent="1" vertex="1">
          <mxGeometry x="584" y="405" width="120" height="30" as="geometry" />
        </mxCell>
        <mxCell id="fG_Hg0KZ-a5OGt1LmFdi-19" value="" style="endArrow=classic;html=1;rounded=0;exitX=0.5;exitY=1;exitDx=0;exitDy=0;entryX=0.5;entryY=0;entryDx=0;entryDy=0;entryPerimeter=0;" parent="1" target="fG_Hg0KZ-a5OGt1LmFdi-20" edge="1">
          <mxGeometry width="50" height="50" relative="1" as="geometry">
            <mxPoint x="420" y="290" as="sourcePoint" />
            <mxPoint x="570" y="330" as="targetPoint" />
          </mxGeometry>
        </mxCell>
        <mxCell id="fG_Hg0KZ-a5OGt1LmFdi-20" value="" style="verticalLabelPosition=bottom;verticalAlign=top;html=1;shape=mxgraph.flowchart.summing_function;" parent="1" vertex="1">
          <mxGeometry x="410" y="335" width="20" height="20" as="geometry" />
        </mxCell>
        <mxCell id="fG_Hg0KZ-a5OGt1LmFdi-21" value="" style="endArrow=classic;html=1;rounded=0;exitX=0.5;exitY=1;exitDx=0;exitDy=0;exitPerimeter=0;entryX=0.5;entryY=0;entryDx=0;entryDy=0;" parent="1" source="fG_Hg0KZ-a5OGt1LmFdi-20" edge="1">
          <mxGeometry width="50" height="50" relative="1" as="geometry">
            <mxPoint x="520" y="380" as="sourcePoint" />
            <mxPoint x="420" y="400" as="targetPoint" />
          </mxGeometry>
        </mxCell>
        <mxCell id="fG_Hg0KZ-a5OGt1LmFdi-22" value="" style="endArrow=classic;html=1;rounded=0;exitX=0.5;exitY=1;exitDx=0;exitDy=0;entryX=0.5;entryY=0;entryDx=0;entryDy=0;entryPerimeter=0;" parent="1" target="fG_Hg0KZ-a5OGt1LmFdi-23" edge="1">
          <mxGeometry width="50" height="50" relative="1" as="geometry">
            <mxPoint x="644" y="295" as="sourcePoint" />
            <mxPoint x="794" y="335" as="targetPoint" />
          </mxGeometry>
        </mxCell>
        <mxCell id="fG_Hg0KZ-a5OGt1LmFdi-23" value="" style="verticalLabelPosition=bottom;verticalAlign=top;html=1;shape=mxgraph.flowchart.summing_function;" parent="1" vertex="1">
          <mxGeometry x="634" y="340" width="20" height="20" as="geometry" />
        </mxCell>
        <mxCell id="fG_Hg0KZ-a5OGt1LmFdi-24" value="" style="endArrow=classic;html=1;rounded=0;exitX=0.5;exitY=1;exitDx=0;exitDy=0;exitPerimeter=0;entryX=0.5;entryY=0;entryDx=0;entryDy=0;" parent="1" source="fG_Hg0KZ-a5OGt1LmFdi-23" edge="1">
          <mxGeometry width="50" height="50" relative="1" as="geometry">
            <mxPoint x="744" y="385" as="sourcePoint" />
            <mxPoint x="644" y="405" as="targetPoint" />
          </mxGeometry>
        </mxCell>
        <mxCell id="fG_Hg0KZ-a5OGt1LmFdi-25" style="edgeStyle=orthogonalEdgeStyle;rounded=0;orthogonalLoop=1;jettySize=auto;html=1;entryX=0;entryY=0.5;entryDx=0;entryDy=0;entryPerimeter=0;" parent="1" target="fG_Hg0KZ-a5OGt1LmFdi-20" edge="1">
          <mxGeometry relative="1" as="geometry">
            <Array as="points">
              <mxPoint x="240" y="190" />
              <mxPoint x="320" y="190" />
              <mxPoint x="320" y="345" />
            </Array>
            <mxPoint x="240" y="160" as="sourcePoint" />
          </mxGeometry>
        </mxCell>
        <mxCell id="fG_Hg0KZ-a5OGt1LmFdi-26" value="" style="endArrow=classic;html=1;rounded=0;" parent="1" edge="1">
          <mxGeometry width="50" height="50" relative="1" as="geometry">
            <mxPoint x="589" y="350" as="sourcePoint" />
            <mxPoint x="634" y="350" as="targetPoint" />
          </mxGeometry>
        </mxCell>
        <mxCell id="fG_Hg0KZ-a5OGt1LmFdi-27" value="C&lt;sub&gt;n-1&lt;/sub&gt;" style="text;html=1;strokeColor=none;fillColor=none;align=center;verticalAlign=middle;whiteSpace=wrap;rounded=0;" parent="1" vertex="1">
          <mxGeometry x="544" y="335" width="40" height="30" as="geometry" />
        </mxCell>
        <mxCell id="fG_Hg0KZ-a5OGt1LmFdi-28" value="C&lt;sub&gt;0&lt;/sub&gt; = IV" style="text;html=1;strokeColor=none;fillColor=none;align=center;verticalAlign=middle;whiteSpace=wrap;rounded=0;" parent="1" vertex="1">
          <mxGeometry x="90" y="330" width="60" height="30" as="geometry" />
        </mxCell>
        <mxCell id="fG_Hg0KZ-a5OGt1LmFdi-29" value="" style="endArrow=classic;html=1;rounded=0;exitX=1;exitY=0.5;exitDx=0;exitDy=0;entryX=0;entryY=0.5;entryDx=0;entryDy=0;entryPerimeter=0;" parent="1" source="fG_Hg0KZ-a5OGt1LmFdi-28" edge="1">
          <mxGeometry width="50" height="50" relative="1" as="geometry">
            <mxPoint x="340" y="380" as="sourcePoint" />
            <mxPoint x="230" y="345" as="targetPoint" />
          </mxGeometry>
        </mxCell>
        <mxCell id="fG_Hg0KZ-a5OGt1LmFdi-30" value="C&lt;sub&gt;1&lt;/sub&gt;" style="rounded=0;whiteSpace=wrap;html=1;" parent="1" vertex="1">
          <mxGeometry x="174" y="130" width="130" height="30" as="geometry" />
        </mxCell>
        <mxCell id="fG_Hg0KZ-a5OGt1LmFdi-31" value="C&lt;sub&gt;2&lt;/sub&gt;" style="rounded=0;whiteSpace=wrap;html=1;" parent="1" vertex="1">
          <mxGeometry x="354" y="130" width="130" height="30" as="geometry" />
        </mxCell>
        <mxCell id="fG_Hg0KZ-a5OGt1LmFdi-32" value="C&lt;sub&gt;n&lt;/sub&gt;" style="rounded=0;whiteSpace=wrap;html=1;" parent="1" vertex="1">
          <mxGeometry x="574" y="130" width="130" height="30" as="geometry" />
        </mxCell>
        <mxCell id="IQn8CMPKYb9RTf8P1wUh-1" value="C&lt;sub&gt;1&lt;/sub&gt;" style="text;html=1;strokeColor=none;fillColor=none;align=center;verticalAlign=middle;whiteSpace=wrap;rounded=0;" vertex="1" parent="1">
          <mxGeometry x="340" y="320" width="60" height="30" as="geometry" />
        </mxCell>
      </root>
    </mxGraphModel>
  </diagram>
</mxfile>
